<?xml version="1.0" standalone="no"?><!DOCTYPE svg PUBLIC "-//W3C//DTD SVG 1.1//EN" "http://www.w3.org/Graphics/SVG/1.1/DTD/svg11.dtd"><svg t="1547273257731" class="icon" style="" viewBox="0 0 1024 1024" version="1.1" xmlns="http://www.w3.org/2000/svg" p-id="3462" xmlns:xlink="http://www.w3.org/1999/xlink" width="200" height="200"><defs><style type="text/css"></style></defs><path d="M864 0h-704C108.8 0 64 44.8 64 96v896c0 12.8 6.4 25.6 19.2 25.6 12.8 6.4 25.6 6.4 32 0l115.2-70.4 128 76.8c6.4 0 19.2 0 25.6-6.4l128-76.8 128 76.8c6.4 0 12.8 6.4 19.2 6.4 6.4 0 12.8 0 19.2-6.4l121.6-70.4 115.2 70.4c12.8 6.4 25.6 6.4 32 0 12.8-6.4 19.2-19.2 19.2-25.6v-896C960 44.8 915.2 0 864 0z m32 934.4l-83.2-51.2c-12.8-6.4-25.6-6.4-32 0l-128 76.8-128-76.8c-12.8-6.4-19.2-6.4-32 0l-128 76.8-128-76.8c-6.4 0-12.8-6.4-19.2-6.4-6.4 0-12.8 0-19.2 6.4l-70.4 51.2V96c0-19.2 12.8-32 32-32h704c19.2 0 32 12.8 32 32v838.4z" fill="" p-id="3463"></path><path d="M768 217.6H256c-19.2 0-32 12.8-32 32s19.2 32 32 32h512c19.2 0 32-12.8 32-32s-19.2-32-32-32zM761.6 396.8H256c-19.2 0-32 12.8-32 32s19.2 32 32 32h505.6c19.2 0 32-12.8 32-32s-12.8-32-32-32zM640 582.4H256c-19.2 0-32 12.8-32 32s12.8 32 32 32h384c19.2 0 32-12.8 32-32s-19.2-32-32-32z" fill="" p-id="3464"></path></svg>