<?xml version="1.0" standalone="no"?><!DOCTYPE svg PUBLIC "-//W3C//DTD SVG 1.1//EN" "http://www.w3.org/Graphics/SVG/1.1/DTD/svg11.dtd"><svg t="1547273752292" class="icon" style="" viewBox="0 0 1024 1024" version="1.1" xmlns="http://www.w3.org/2000/svg" p-id="21863" xmlns:xlink="http://www.w3.org/1999/xlink" width="200" height="200"><defs><style type="text/css"></style></defs><path d="M512 279.893333c126.293333 0 232.106667 102.4 232.106667 232.106667 0 17.066667 0 30.72-3.413334 47.786667-3.413333 20.48 6.826667 37.546667 27.306667 40.96 20.48 3.413333 37.546667-6.826667 40.96-27.306667 3.413333-20.48 6.826667-40.96 6.826667-61.44 0-167.253333-136.533333-303.786667-303.786667-303.786667s-303.786667 136.533333-303.786667 303.786667 136.533333 303.786667 303.786667 303.786667c34.133333 0 68.266667-6.826667 98.986667-17.066667 17.066667-6.826667 27.306667-27.306667 20.48-44.373333-6.826667-17.066667-27.306667-27.306667-44.373334-20.48-23.893333 6.826667-51.2 13.653333-75.093333 13.653333-126.293333 0-232.106667-102.4-232.106667-232.106667 0-133.12 105.813333-235.52 232.106667-235.52z" p-id="21864"></path><path d="M696.32 624.64c-13.653333-10.24-37.546667-10.24-51.2 3.413333-13.653333 13.653333-10.24 37.546667 3.413333 51.2l201.386667 174.08c6.826667 6.826667 13.653333 10.24 23.893333 10.24 10.24 0 20.48-3.413333 27.306667-13.653333 13.653333-13.653333 10.24-37.546667-3.413333-51.2l-201.386667-174.08z" p-id="21865"></path><path d="M512 0C228.693333 0 0 228.693333 0 512s228.693333 512 512 512c75.093333 0 150.186667-17.066667 218.453333-47.786667 17.066667-6.826667 23.893333-30.72 17.066667-47.786666-6.826667-17.066667-30.72-23.893333-47.786667-17.066667-58.026667 27.306667-122.88 40.96-187.733333 40.96-242.346667 0-440.32-197.973333-440.32-440.32S269.653333 68.266667 512 68.266667c242.346667 0 440.32 197.973333 440.32 443.733333 0 44.373333-6.826667 92.16-20.48 133.12-6.826667 20.48 3.413333 37.546667 23.893333 44.373333 20.48 6.826667 37.546667-3.413333 44.373334-23.893333 17.066667-51.2 23.893333-102.4 23.893333-157.013333C1024 228.693333 795.306667 0 512 0z" p-id="21866"></path></svg>