<?xml version="1.0" standalone="no"?><!DOCTYPE svg PUBLIC "-//W3C//DTD SVG 1.1//EN" "http://www.w3.org/Graphics/SVG/1.1/DTD/svg11.dtd"><svg t="1547273069522" class="icon" style="" viewBox="0 0 1024 1024" version="1.1" xmlns="http://www.w3.org/2000/svg" p-id="2014" xmlns:xlink="http://www.w3.org/1999/xlink" width="200" height="200"><defs><style type="text/css"></style></defs><path d="M382.22377618 833.86648571H82.98768981a53.62653878 53.62653878 0 0 1 0-107.25307753h299.23608637l-69.17823503-69.17823502a53.62653878 53.62653878 0 0 1 75.61341965-75.61341968l155.51696246 155.51696245a53.5192857 53.5192857 0 0 1 2.68132694 83.65740048l-158.1982894 158.19828937a53.57291223 53.57291223 0 0 1-87.35763166-17.53587819 53.62653878 53.62653878 0 0 1 11.74421201-58.61380685l69.17823503-69.17823503z m558.78853401 160.87961633h-214.50615512a53.62653878 53.62653878 0 0 1 0-107.25307755h160.87961632v-506.77079141l-375.38577139-234.34797443-375.38577139 234.88423984v130.84875459a53.62653878 53.62653878 0 0 1-107.25307756 0v-160.87961633a53.5192857 53.5192857 0 0 1 25.20447323-45.58255794l429.01231017-268.13269386a53.57291223 53.57291223 0 0 1 56.8441311 0l429.01231017 268.13269386a53.5192857 53.5192857 0 0 1 25.20447323 45.58255794v589.8919265a53.62653878 53.62653878 0 0 1-53.62653876 53.62653879z" p-id="2015"></path></svg>