<?xml version="1.0" standalone="no"?><!DOCTYPE svg PUBLIC "-//W3C//DTD SVG 1.1//EN" "http://www.w3.org/Graphics/SVG/1.1/DTD/svg11.dtd"><svg t="1547273645778" class="icon" style="" viewBox="0 0 1024 1024" version="1.1" xmlns="http://www.w3.org/2000/svg" p-id="21215" xmlns:xlink="http://www.w3.org/1999/xlink" width="200" height="200"><defs><style type="text/css"></style></defs><path d="M393.1 391.5c25-120.9 143.3-198.6 264.3-173.6S856 361.2 831 482.2c-25 120.9-143.3 198.6-264.3 173.6S368 512.4 393.1 391.5z m251.3-118.1c-89.7-18.5-177.4 39.1-195.9 128.8s39.1 177.4 128.8 195.9c89.7 18.5 177.4-39.1 196-128.8 18.5-89.6-39.1-177.3-128.9-195.9zM214.9 711.7h420.7c16.9 0 30.6 13.7 30.6 30.6s-13.7 30.6-30.6 30.6H214.9c-16.9 0-30.6-13.7-30.6-30.6s13.7-30.6 30.6-30.6z m0-197.9h122.4c16.9 0 30.6 13.7 30.6 30.6 0 16.9-13.7 30.6-30.6 30.6H214.9c-16.9 0-30.6-13.7-30.6-30.6 0-16.9 13.7-30.6 30.6-30.6z m0-204.3h122.4c16.9 0 30.6 13.7 30.6 30.6 0 16.9-13.7 30.6-30.6 30.6H214.9c-16.9 0-30.6-13.7-30.6-30.6s13.7-30.6 30.6-30.6z" p-id="21216"></path><path d="M761.8 597.3L838.2 729c7.9 13.7 3.2 31.3-10.5 39.2l-3.3 1.9c-13.7 7.9-31.3 3.2-39.2-10.5l-76.4-131.8c-7.9-13.7-3.2-31.3 10.5-39.2l3.3-1.9c13.7-7.9 31.3-3.2 39.2 10.6z" p-id="21217"></path></svg>